<svg xmlns="http://www.w3.org/2000/svg" viewBox="0 0 349.26 302.238"><g fill="#ff6201"><path d="M194.243.529c-7.9 1.3-10.4 1.8-11.3 2.4-.5.3-2.2.8-3.9 1-3.9.7-17 6-19.1 7.8-1 .8-3 2-4.5 2.8-1.6.8-4.4 2.9-6.4 4.7-1.9 1.8-3.9 3.3-4.4 3.3s-.9.7-.9 1.5-.6 1.5-1.4 1.5c-2.1 0-11.8 15.2-15.3 24-2.3 5.7-2.8 7.8-1.9 8.9.8 1.1.8 1.3-.1.7-.7-.4-1.3-.5-1.3-.2 0 .2-.7 4-1.5 8.3-2.1 10.9-1.9 28.4.5 42.8 1.1 6.5 1.6 12.2 1.2 12.6s-6.5 1.9-13.7 3.4c-7.1 1.4-13.2 2.9-13.5 3.3s-2.3.8-4.5.9c-2.2.2-4.7.6-5.5.9-.8.4-2.6.9-4 1.1s-5.4 1.2-9 2.2c-14.5 4.2-24.1 5.2-28.3 2.9-8-4.5-12.6-7.9-19.1-14.5l-7.4-7.6-4 8.4c-11.5 24.3-15.9 45.2-14.8 69.9.4 7.4 1.1 15.5 1.7 18 .5 2.5 1.2 5.8 1.5 7.5.9 5.2 5.7 20.5 6.4 20.5.4 0 1 1.3 1.3 3 .9 4.3 6.7 14.1 7.9 13.3.7-.3.8-.1.4.5-.8 1.3 2 7.2 3.4 7.2.6 0 .9.3.8.7-.3 1 3.2 5.2 9.7 11.5 4.7 4.6 18.2 12.2 23 13 1.1.2 2.2.5 2.5.8 1.4 1.4 28.4 7.4 38 8.4 3.6.4 7.9.9 9.5 1.1 21.8 3 57.1 4 86.4 2.6 12.3-.6 24-1.5 26-2s6.5-1.2 10.1-1.6c11.2-1.1 12.3-1.3 22-3.4 21.7-4.7 29.1-8 45-20.3 8.8-6.8 22-21.5 22-24.4 0-.8.4-1.4.9-1.4 1.1 0 3.8-7.5 5.6-15.2 2.3-10.1-.4-30-4.8-35.6-.5-.6-.7-1.2-.3-1.2.3 0-.4-1.7-1.7-3.8-1.2-2-2.8-4.8-3.4-6.2-1.3-3.1-10.8-16-13.1-17.8-.9-.6-1.3-1.2-.8-1.2.6 0-7.1-8.3-19.1-20.7-4.9-5-5.3-8-1.5-11.4 3.6-3.2 9.7-4.6 23.7-5.4 5.5-.4 10.8-.8 11.7-1.1s2.5-.7 3.5-.9c5.3-1.2 16.4-5.9 21.2-8.9 9.7-5.9 12-11.8 7.2-18.6-1.9-2.6-4.2-3.4-25.6-8.5-14.6-3.4-20.5-6.5-29-15.1-7.9-7.9-13.7-18.3-16-28.6-.2-.9-1.4-3.9-2.6-6.5s-2.3-5.3-2.4-5.9c-.6-2.4-5.6-10-9.2-13.9-8.3-8.9-21-16.8-30.4-18.9s-12.6-2.6-21.9-3c-5.8-.3-12.7-.1-15.5.4m46.4 44.6c10.5 5.2 11 22.2.9 28.4-3.7 2.2-12.5 2.7-16.1.9-8.3-4.2-11.5-17-6.1-24.2 4.6-6.2 14.4-8.5 21.3-5.1m-50.9 148.5c0 28.5.3 40.7 1.2 42.2 1.5 3 3.9 4.6 6.5 4.7 3.1 0 3.4.9 2.3 8.1-1.9 12.2-1.1 11.3-9.1 10.6-9.7-.8-16.5-4.6-19.9-11.3l-2.5-4.8-.3-42.8c-.3-41.7-.3-42.7 1.7-43.7 2.3-1.3 10.9-2.8 16.4-3l3.7-.1zm62.5-7.5c2.8.7 6.5 2.3 8.3 3.4 3.8 2.3 9.1 9.6 11 14.7 2 5.9 3.3 16.3 2.6 20.9l-.6 4.4h-21.9c-18.9 0-21.9.2-21.9 1.5 0 2.1 5.1 7.2 8.4 8.5 3.9 1.4 16.2 1.2 22.6-.4 3-.8 5.8-1.3 6.1-1 1.3.7 3.2 16.5 2.2 17.5-3.9 3.9-30.6 5.4-39.9 2.3-14.6-5-22.5-17.3-22.5-35.4 0-16.7 6.7-28.5 19.9-34.7 9-4.2 15.2-4.6 25.7-1.7m-140.8 21.3c.1 11.3.4 22.4.8 24.8.9 6 4.1 8.3 11.6 8.3h5.9v-54.1l10.8.3 10.7.3.3 34.2.2 34.2-4.2 1.2c-13.1 3.5-31.9 3.9-40.5.9-10.7-3.8-15.7-10.8-17.3-24.7-1.1-10-1.4-44.6-.3-45.7.4-.3 5.4-.5 11.2-.4l10.6.3z"/><path d="M238.743 203.229c-4.2 1.3-6.4 3.1-7.7 6-.7 1.8-1.3 3.7-1.3 4.3 0 .7 4 1 11.5.9 7.1-.1 11.5-.5 11.5-1.1 0-2.5-4.6-8.1-7.6-9.4-3.5-1.5-4-1.5-6.4-.7"/></g></svg>