<?xml version="1.0" encoding="UTF-8" standalone="no"?>
<!-- Created with Inkscape (http://www.inkscape.org/) -->

<svg
   width="100"
   height="100"
   viewBox="0 0 26.458333 26.458333"
   version="1.1"
   id="svg1"
   xml:space="preserve"
   inkscape:version="1.4.4 (dcaf3e7, 2026-05-05)"
   sodipodi:docname="uleOutline.svg"
   inkscape:export-filename="uleOutline.svg"
   inkscape:export-xdpi="96"
   inkscape:export-ydpi="96"
   xmlns:inkscape="http://www.inkscape.org/namespaces/inkscape"
   xmlns:sodipodi="http://sodipodi.sourceforge.net/DTD/sodipodi-0.dtd"
   xmlns="http://www.w3.org/2000/svg"
   xmlns:svg="http://www.w3.org/2000/svg"><sodipodi:namedview
     id="namedview1"
     pagecolor="#505050"
     bordercolor="#eeeeee"
     borderopacity="1"
     inkscape:showpageshadow="0"
     inkscape:pageopacity="0"
     inkscape:pagecheckerboard="0"
     inkscape:deskcolor="#505050"
     inkscape:document-units="mm"
     inkscape:zoom="5.6568542"
     inkscape:cx="46.403883"
     inkscape:cy="40.835417"
     inkscape:window-width="1920"
     inkscape:window-height="1040"
     inkscape:window-x="0"
     inkscape:window-y="20"
     inkscape:window-maximized="1"
     inkscape:current-layer="layer1"
     showgrid="false"><inkscape:page
       x="0"
       y="0"
       width="26.458332"
       height="26.458332"
       id="page2"
       margin="0"
       bleed="0" /></sodipodi:namedview><defs
     id="defs1" /><g
     inkscape:label="Capa 1"
     inkscape:groupmode="layer"
     id="layer1"><path
       style="opacity:1;fill:#ff6201;fill-opacity:1;stroke:#ffffff;stroke-width:0.38419;stroke-opacity:1"
       d="m 1.9717459,10.415867 c 0.2686686,0.64624 0.7444381,1.023611 1.2579095,1.549249 0.5711444,0.210475 1.2025231,0.07462 1.5965774,0.09534 C 6.4607001,11.988673 7.8762131,11.413503 9.3256779,10.9164 9.6872315,10.515948 9.6768477,9.5470016 9.3329921,8.5889084 9.1471419,8.0710806 9.01931,7.4840358 9.0354302,6.9121957 9.1162818,5.8451139 9.3421878,4.8971348 9.8095277,4.1473879 10.75945,2.5836055 11.369593,2.1942993 12.276966,1.7162637 c 1.287833,-0.6663582 2.100016,-0.6632139 2.951249,-0.7150365 1.022339,0.013765 1.966143,0.2016267 2.806107,0.6196983 0.983028,0.4519425 1.665285,1.0936101 1.981194,1.7579737 0.48055,0.6873769 0.670579,1.272426 0.924608,1.8296824 0.714907,1.8815608 0.161122,2.5039567 1.061451,2.6093271 1.194056,0.2840504 2.426403,0.4532287 3.580204,0.8580434 0.401716,0.3057515 0.565423,0.8069233 0.580574,1.4300729 -0.208076,0.658923 -0.841755,1.024303 -1.69334,1.239399 l -3.870492,0.619698 c -0.06594,0.116664 -0.16149,0.188923 -0.145144,0.429022 l 0.870859,1.096388 1.209529,1.573081 c 0.644774,0.726878 0.982013,1.336294 1.257909,2.09744 0.157759,0.734385 0.212195,1.570574 0.04838,2.621801 -0.234112,0.900239 -0.498183,1.780797 -1.112766,2.431122 -0.362561,0.38027 -0.650698,0.629248 -1.02336,0.945718 -0.372332,0.31619 -0.853315,0.62837 -1.383956,0.920856 -1.08798,0.576743 -2.53741,0.629914 -3.737088,0.802897 -1.143392,0.0561 -2.328201,0.105188 -3.33829,0.0715 -2.33865,-0.0063 -4.5636105,-0.03844 -6.6524073,-0.286014 C 5.4056582,24.539822 4.2317297,24.3831 3.3022271,23.739383 2.3319488,22.956544 1.8947444,22.178298 1.3911723,21.355928 0.88327854,20.446188 0.6425051,19.404856 0.52031191,18.305104 0.36845732,16.962159 0.25714566,15.611224 0.42354991,14.205563 0.46737979,12.929903 0.76111754,11.900471 1.1250764,10.940229 1.3737991,9.9232975 1.6860394,9.9232429 1.9717459,10.415867 Z"
       id="path1"
       sodipodi:nodetypes="ccccsccccccccccccccccccscccccccccc" /><ellipse
       style="opacity:1;fill:#ffffff;fill-opacity:1;stroke:#ffffff;stroke-width:0.619071;stroke-linecap:butt;stroke-dasharray:none;stroke-opacity:1;paint-order:normal"
       id="path3"
       cx="17.381136"
       cy="5.8396344"
       rx="0.80462229"
       ry="0.84044975" /></g><text
     xml:space="preserve"
     style="font-size:9.92328px;writing-mode:lr-tb;direction:ltr;opacity:1;fill:#ffffff;fill-opacity:1;stroke:#ffffff;stroke-width:0.699803;stroke-linecap:butt;stroke-dasharray:none;stroke-opacity:1;paint-order:normal"
     x="5.6954484"
     y="22.39086"
     id="text3"
     transform="scale(1.0219322,0.9785385)"><tspan
       sodipodi:role="line"
       id="tspan3"
       style="font-style:normal;font-variant:normal;font-weight:300;font-stretch:normal;font-family:Ubuntu;-inkscape-font-specification:'Ubuntu Light';stroke-width:0.699803;stroke-dasharray:none"
       x="5.6954484"
       y="22.39086">ule</tspan></text></svg>
